<mxfile host="app.diagrams.net" modified="2021-05-26T08:47:10.290Z" agent="5.0 (Macintosh; Intel Mac OS X 10_15_7) AppleWebKit/537.36 (KHTML, like Gecko) Chrome/90.0.4430.212 Safari/537.36" etag="TwW192pmelzBQ73zJrrC" version="14.7.1" type="github" pages="3">
  <diagram id="C5RBs43oDa-KdzZeNtuy" name="strategy">
    <mxGraphModel dx="1426" dy="794" grid="1" gridSize="10" guides="1" tooltips="1" connect="1" arrows="1" fold="1" page="1" pageScale="1" pageWidth="827" pageHeight="1169" math="0" shadow="0">
      <root>
        <mxCell id="WIyWlLk6GJQsqaUBKTNV-0" />
        <mxCell id="WIyWlLk6GJQsqaUBKTNV-1" parent="WIyWlLk6GJQsqaUBKTNV-0" />
        <mxCell id="zkfFHV4jXpPFQw0GAbJ--0" value="Context" style="swimlane;fontStyle=0;align=center;verticalAlign=top;childLayout=stackLayout;horizontal=1;startSize=26;horizontalStack=0;resizeParent=1;resizeLast=0;collapsible=1;marginBottom=0;rounded=0;shadow=0;strokeWidth=1;fillColor=#B2C9AB;strokeColor=#788AA3;fontColor=#46495D;" parent="WIyWlLk6GJQsqaUBKTNV-1" vertex="1">
          <mxGeometry x="100" y="110" width="160" height="100" as="geometry">
            <mxRectangle x="230" y="140" width="160" height="26" as="alternateBounds" />
          </mxGeometry>
        </mxCell>
        <mxCell id="zkfFHV4jXpPFQw0GAbJ--1" value="- strategy" style="text;align=left;verticalAlign=top;spacingLeft=4;spacingRight=4;overflow=hidden;rotatable=0;points=[[0,0.5],[1,0.5]];portConstraint=eastwest;fontColor=#46495D;" parent="zkfFHV4jXpPFQw0GAbJ--0" vertex="1">
          <mxGeometry y="26" width="160" height="26" as="geometry" />
        </mxCell>
        <mxCell id="zkfFHV4jXpPFQw0GAbJ--4" value="" style="line;html=1;strokeWidth=1;align=left;verticalAlign=middle;spacingTop=-1;spacingLeft=3;spacingRight=3;rotatable=0;labelPosition=right;points=[];portConstraint=eastwest;fillColor=#B2C9AB;strokeColor=#788AA3;fontColor=#46495D;" parent="zkfFHV4jXpPFQw0GAbJ--0" vertex="1">
          <mxGeometry y="52" width="160" height="8" as="geometry" />
        </mxCell>
        <mxCell id="zkfFHV4jXpPFQw0GAbJ--5" value="+ Context(Strategy strategy)&#xa;+ doSomething(): " style="text;align=left;verticalAlign=top;spacingLeft=4;spacingRight=4;overflow=hidden;rotatable=0;points=[[0,0.5],[1,0.5]];portConstraint=eastwest;fontColor=#46495D;" parent="zkfFHV4jXpPFQw0GAbJ--0" vertex="1">
          <mxGeometry y="60" width="160" height="40" as="geometry" />
        </mxCell>
        <mxCell id="1wk1NCqHtkt0vL_feH0J-4" value="" style="endArrow=open;html=1;endSize=12;startArrow=diamondThin;startSize=14;startFill=0;edgeStyle=orthogonalEdgeStyle;align=left;verticalAlign=bottom;strokeColor=#788AA3;fontColor=#46495D;entryX=0;entryY=0.5;entryDx=0;entryDy=0;" parent="WIyWlLk6GJQsqaUBKTNV-1" target="1wk1NCqHtkt0vL_feH0J-26" edge="1">
          <mxGeometry x="-1" y="3" relative="1" as="geometry">
            <mxPoint x="261" y="170" as="sourcePoint" />
            <mxPoint x="396" y="169" as="targetPoint" />
          </mxGeometry>
        </mxCell>
        <mxCell id="1wk1NCqHtkt0vL_feH0J-6" value="ConcreteStrategyA" style="swimlane;fontStyle=1;align=center;verticalAlign=top;childLayout=stackLayout;horizontal=1;startSize=26;horizontalStack=0;resizeParent=1;resizeParentMax=0;resizeLast=0;collapsible=1;marginBottom=0;fillColor=#B2C9AB;strokeColor=#788AA3;fontColor=#46495D;" parent="WIyWlLk6GJQsqaUBKTNV-1" vertex="1">
          <mxGeometry x="210" y="310" width="160" height="52" as="geometry" />
        </mxCell>
        <mxCell id="1wk1NCqHtkt0vL_feH0J-9" value="+ operate(type)" style="text;strokeColor=none;fillColor=none;align=left;verticalAlign=top;spacingLeft=4;spacingRight=4;overflow=hidden;rotatable=0;points=[[0,0.5],[1,0.5]];portConstraint=eastwest;fontColor=#46495D;" parent="1wk1NCqHtkt0vL_feH0J-6" vertex="1">
          <mxGeometry y="26" width="160" height="26" as="geometry" />
        </mxCell>
        <mxCell id="1wk1NCqHtkt0vL_feH0J-10" value="ConcreteStrategyB" style="swimlane;fontStyle=1;align=center;verticalAlign=top;childLayout=stackLayout;horizontal=1;startSize=26;horizontalStack=0;resizeParent=1;resizeParentMax=0;resizeLast=0;collapsible=1;marginBottom=0;fillColor=#B2C9AB;strokeColor=#788AA3;fontColor=#46495D;" parent="WIyWlLk6GJQsqaUBKTNV-1" vertex="1">
          <mxGeometry x="396" y="310" width="160" height="52" as="geometry" />
        </mxCell>
        <mxCell id="1wk1NCqHtkt0vL_feH0J-13" value="+ operate(type)" style="text;strokeColor=none;fillColor=none;align=left;verticalAlign=top;spacingLeft=4;spacingRight=4;overflow=hidden;rotatable=0;points=[[0,0.5],[1,0.5]];portConstraint=eastwest;fontColor=#46495D;" parent="1wk1NCqHtkt0vL_feH0J-10" vertex="1">
          <mxGeometry y="26" width="160" height="26" as="geometry" />
        </mxCell>
        <mxCell id="1wk1NCqHtkt0vL_feH0J-14" value="ConcreteStrategyC" style="swimlane;fontStyle=1;align=center;verticalAlign=top;childLayout=stackLayout;horizontal=1;startSize=26;horizontalStack=0;resizeParent=1;resizeParentMax=0;resizeLast=0;collapsible=1;marginBottom=0;fillColor=#B2C9AB;strokeColor=#788AA3;fontColor=#46495D;" parent="WIyWlLk6GJQsqaUBKTNV-1" vertex="1">
          <mxGeometry x="580" y="310" width="160" height="52" as="geometry">
            <mxRectangle x="570" y="310" width="140" height="26" as="alternateBounds" />
          </mxGeometry>
        </mxCell>
        <mxCell id="1wk1NCqHtkt0vL_feH0J-17" value="+ operate(type)" style="text;strokeColor=none;fillColor=none;align=left;verticalAlign=top;spacingLeft=4;spacingRight=4;overflow=hidden;rotatable=0;points=[[0,0.5],[1,0.5]];portConstraint=eastwest;fontColor=#46495D;" parent="1wk1NCqHtkt0vL_feH0J-14" vertex="1">
          <mxGeometry y="26" width="160" height="26" as="geometry" />
        </mxCell>
        <mxCell id="1wk1NCqHtkt0vL_feH0J-26" value="«interface»&#xa;Strategy" style="swimlane;fontStyle=3;align=center;verticalAlign=top;childLayout=stackLayout;horizontal=1;startSize=40;horizontalStack=0;resizeParent=1;resizeParentMax=0;resizeLast=0;collapsible=1;marginBottom=0;fillColor=#B2C9AB;strokeColor=#788AA3;fontColor=#46495D;" parent="WIyWlLk6GJQsqaUBKTNV-1" vertex="1">
          <mxGeometry x="390" y="136.5" width="172" height="66" as="geometry" />
        </mxCell>
        <mxCell id="1wk1NCqHtkt0vL_feH0J-27" value="+ operate(type)" style="text;strokeColor=none;fillColor=none;align=left;verticalAlign=top;spacingLeft=4;spacingRight=4;overflow=hidden;rotatable=0;points=[[0,0.5],[1,0.5]];portConstraint=eastwest;fontColor=#46495D;fontStyle=2" parent="1wk1NCqHtkt0vL_feH0J-26" vertex="1">
          <mxGeometry y="40" width="172" height="26" as="geometry" />
        </mxCell>
        <mxCell id="1wk1NCqHtkt0vL_feH0J-29" value="" style="endArrow=block;endSize=16;endFill=0;html=1;exitX=0.5;exitY=0;exitDx=0;exitDy=0;dashed=1;strokeColor=#788AA3;fontColor=#46495D;" parent="WIyWlLk6GJQsqaUBKTNV-1" source="1wk1NCqHtkt0vL_feH0J-10" edge="1">
          <mxGeometry width="160" relative="1" as="geometry">
            <mxPoint x="330" y="520" as="sourcePoint" />
            <mxPoint x="475" y="205" as="targetPoint" />
          </mxGeometry>
        </mxCell>
        <mxCell id="1wk1NCqHtkt0vL_feH0J-31" value="" style="endArrow=block;endSize=16;endFill=0;html=1;dashed=1;exitX=0.5;exitY=0;exitDx=0;exitDy=0;strokeColor=#788AA3;fontColor=#46495D;" parent="WIyWlLk6GJQsqaUBKTNV-1" source="1wk1NCqHtkt0vL_feH0J-6" edge="1">
          <mxGeometry width="160" relative="1" as="geometry">
            <mxPoint x="270" y="290" as="sourcePoint" />
            <mxPoint x="469" y="207" as="targetPoint" />
          </mxGeometry>
        </mxCell>
        <mxCell id="1wk1NCqHtkt0vL_feH0J-32" value="" style="endArrow=block;endSize=16;endFill=0;html=1;exitX=0.5;exitY=0;exitDx=0;exitDy=0;dashed=1;strokeColor=#788AA3;fontColor=#46495D;" parent="WIyWlLk6GJQsqaUBKTNV-1" source="1wk1NCqHtkt0vL_feH0J-14" edge="1">
          <mxGeometry width="160" relative="1" as="geometry">
            <mxPoint x="486" y="320" as="sourcePoint" />
            <mxPoint x="480" y="210" as="targetPoint" />
          </mxGeometry>
        </mxCell>
      </root>
    </mxGraphModel>
  </diagram>
  <diagram id="3x5EG2C8FFP5g2l9tXJp" name="if-else">
    <mxGraphModel dx="1426" dy="794" grid="1" gridSize="10" guides="1" tooltips="1" connect="1" arrows="1" fold="1" page="1" pageScale="1" pageWidth="1169" pageHeight="827" background="#EEEEEE" math="0" shadow="0">
      <root>
        <mxCell id="ePbCa0F6_7jjwLIo5o5B-0" />
        <mxCell id="ePbCa0F6_7jjwLIo5o5B-1" parent="ePbCa0F6_7jjwLIo5o5B-0" />
        <mxCell id="ePbCa0F6_7jjwLIo5o5B-2" value="&lt;p&gt;&lt;font face=&quot;Comic Sans MS&quot; style=&quot;font-size: 16px&quot;&gt;if else 逻辑分派&lt;/font&gt;&lt;/p&gt;" style="ellipse;whiteSpace=wrap;html=1;rounded=0;sketch=0;strokeColor=#6c8ebf;fillColor=#dae8fc;" parent="ePbCa0F6_7jjwLIo5o5B-1" vertex="1">
          <mxGeometry x="440" y="250" width="190" height="80" as="geometry" />
        </mxCell>
        <mxCell id="ePbCa0F6_7jjwLIo5o5B-3" value="&lt;font face=&quot;Comic Sans MS&quot; style=&quot;font-size: 15px&quot;&gt;if else 中的业务逻辑&lt;/font&gt;" style="ellipse;whiteSpace=wrap;html=1;rounded=0;sketch=0;strokeColor=#6c8ebf;fillColor=#dae8fc;" parent="ePbCa0F6_7jjwLIo5o5B-1" vertex="1">
          <mxGeometry x="710" y="250" width="180" height="80" as="geometry" />
        </mxCell>
        <mxCell id="ePbCa0F6_7jjwLIo5o5B-4" value="&lt;span style=&quot;box-sizing: border-box ; color: rgb(51 , 51 , 51)&quot;&gt;&lt;font face=&quot;Comic Sans MS&quot; style=&quot;font-size: 15px&quot;&gt;实现策略接口（或抽象类）的每个策略类&lt;/font&gt;&lt;/span&gt;" style="ellipse;whiteSpace=wrap;html=1;rounded=0;sketch=0;strokeColor=#b85450;fillColor=#f8cecc;" parent="ePbCa0F6_7jjwLIo5o5B-1" vertex="1">
          <mxGeometry x="710" y="420" width="190" height="80" as="geometry" />
        </mxCell>
        <mxCell id="ePbCa0F6_7jjwLIo5o5B-5" value="&lt;font face=&quot;Comic Sans MS&quot; style=&quot;font-size: 15px&quot;&gt;上下文逻辑分派&lt;/font&gt;" style="ellipse;whiteSpace=wrap;html=1;rounded=0;sketch=0;strokeColor=#b85450;fillColor=#f8cecc;" parent="ePbCa0F6_7jjwLIo5o5B-1" vertex="1">
          <mxGeometry x="440" y="420" width="200" height="80" as="geometry" />
        </mxCell>
        <mxCell id="ePbCa0F6_7jjwLIo5o5B-6" value="" style="shape=cross;whiteSpace=wrap;html=1;rounded=0;sketch=0;strokeColor=#6c8ebf;fillColor=#dae8fc;" parent="ePbCa0F6_7jjwLIo5o5B-1" vertex="1">
          <mxGeometry x="650" y="270" width="35" height="40" as="geometry" />
        </mxCell>
        <mxCell id="ePbCa0F6_7jjwLIo5o5B-9" value="" style="shape=cross;whiteSpace=wrap;html=1;rounded=0;sketch=0;strokeColor=#b85450;fillColor=#f8cecc;" parent="ePbCa0F6_7jjwLIo5o5B-1" vertex="1">
          <mxGeometry x="650" y="440" width="35" height="40" as="geometry" />
        </mxCell>
        <mxCell id="ePbCa0F6_7jjwLIo5o5B-10" value="&lt;font face=&quot;Comic Sans MS&quot; style=&quot;font-size: 15px&quot;&gt;if else&lt;/font&gt;" style="rounded=1;whiteSpace=wrap;html=1;sketch=0;strokeColor=#6c8ebf;fillColor=#dae8fc;" parent="ePbCa0F6_7jjwLIo5o5B-1" vertex="1">
          <mxGeometry x="220" y="260" width="120" height="60" as="geometry" />
        </mxCell>
        <mxCell id="ePbCa0F6_7jjwLIo5o5B-11" value="&lt;font face=&quot;Comic Sans MS&quot;&gt;&lt;span style=&quot;font-size: 15px&quot;&gt;策略模式&lt;/span&gt;&lt;/font&gt;" style="rounded=1;whiteSpace=wrap;html=1;sketch=0;strokeColor=#b85450;fillColor=#f8cecc;" parent="ePbCa0F6_7jjwLIo5o5B-1" vertex="1">
          <mxGeometry x="220" y="430" width="120" height="60" as="geometry" />
        </mxCell>
        <mxCell id="ePbCa0F6_7jjwLIo5o5B-14" value="" style="shape=doubleArrow;whiteSpace=wrap;html=1;rounded=0;sketch=0;strokeColor=#6c8ebf;fillColor=#dae8fc;" parent="ePbCa0F6_7jjwLIo5o5B-1" vertex="1">
          <mxGeometry x="360" y="278.5" width="60" height="23" as="geometry" />
        </mxCell>
        <mxCell id="ePbCa0F6_7jjwLIo5o5B-15" value="" style="shape=doubleArrow;whiteSpace=wrap;html=1;rounded=0;sketch=0;strokeColor=#b85450;fillColor=#f8cecc;" parent="ePbCa0F6_7jjwLIo5o5B-1" vertex="1">
          <mxGeometry x="360" y="448.5" width="60" height="23" as="geometry" />
        </mxCell>
      </root>
    </mxGraphModel>
  </diagram>
  <diagram id="yzczNLcZaMrcg75-63yL" name="第 3 页">
    <mxGraphModel dx="1426" dy="737" grid="1" gridSize="10" guides="1" tooltips="1" connect="1" arrows="1" fold="1" page="1" pageScale="1" pageWidth="1169" pageHeight="827" math="0" shadow="0">
      <root>
        <mxCell id="PATQZd_7_Btz0ABjuAe8-0" />
        <mxCell id="PATQZd_7_Btz0ABjuAe8-1" parent="PATQZd_7_Btz0ABjuAe8-0" />
        <mxCell id="PATQZd_7_Btz0ABjuAe8-2" value="&lt;font face=&quot;Comic Sans MS&quot; style=&quot;font-size: 32px&quot;&gt;java hello world&amp;nbsp;&lt;br&gt;pipeline&lt;/font&gt;" style="whiteSpace=wrap;html=1;shape=mxgraph.basic.document;fillColor=#B2C9AB;strokeColor=#788AA3;fontColor=#46495D;rounded=1;" vertex="1" parent="PATQZd_7_Btz0ABjuAe8-1">
          <mxGeometry x="240" y="210" width="190" height="180" as="geometry" />
        </mxCell>
      </root>
    </mxGraphModel>
  </diagram>
</mxfile>
